<svg width="56" height="38" viewBox="0 0 56 38" fill="none" xmlns="http://www.w3.org/2000/svg">
<g filter="url(#filter0_i_127_6)">
<path d="M53 16.5C54.3807 16.5 55.5 17.6193 55.5 19C55.5 20.3807 54.3807 21.5 53 21.5V16.5ZM1.23223 20.7678C0.255922 19.7915 0.255922 18.2085 1.23223 17.2322L17.1421 1.32233C18.1184 0.34602 19.7014 0.34602 20.6777 1.32233C21.654 2.29864 21.654 3.88155 20.6777 4.85786L6.53553 19L20.6777 33.1421C21.654 34.1184 21.654 35.7014 20.6777 36.6777C19.7014 37.654 18.1184 37.654 17.1421 36.6777L1.23223 20.7678ZM53 21.5H3V16.5H53V21.5Z" fill="#404042"/>
</g>
<defs>
<filter id="filter0_i_127_6" x="0.5" y="0.589844" width="55" height="40.8203" filterUnits="userSpaceOnUse" color-interpolation-filters="sRGB">
<feFlood flood-opacity="0" result="BackgroundImageFix"/>
<feBlend mode="normal" in="SourceGraphic" in2="BackgroundImageFix" result="shape"/>
<feColorMatrix in="SourceAlpha" type="matrix" values="0 0 0 0 0 0 0 0 0 0 0 0 0 0 0 0 0 0 127 0" result="hardAlpha"/>
<feOffset dy="4"/>
<feGaussianBlur stdDeviation="2"/>
<feComposite in2="hardAlpha" operator="arithmetic" k2="-1" k3="1"/>
<feColorMatrix type="matrix" values="0 0 0 0 0 0 0 0 0 0 0 0 0 0 0 0 0 0 0.25 0"/>
<feBlend mode="normal" in2="shape" result="effect1_innerShadow_127_6"/>
</filter>
</defs>
</svg>
