<svg width="97" height="96" viewBox="0 0 97 96" fill="none" xmlns="http://www.w3.org/2000/svg">
<g id="Networks">
<path id="Icon" fill-rule="evenodd" clip-rule="evenodd" d="M48.998 12C39.0569 12 30.0569 16.0294 23.5422 22.5442C17.0275 29.0589 12.998 38.0589 12.998 48C12.998 57.9411 17.0275 66.9411 23.5422 73.4558C30.0569 79.9706 39.0569 84 48.998 84C58.9392 84 67.9392 79.9706 74.4539 73.4558C80.9686 66.9411 84.998 57.9411 84.998 48C84.998 38.0589 80.9686 29.0589 74.4539 22.5442C67.9392 16.0294 58.9392 12 48.998 12Z" fill="#2B83EC"/>
<g id="Controller">
<path id="Rectangle 4606" d="M32.0772 35.704C37.3589 28.6197 47.3836 27.1584 54.468 32.4402L61.7979 37.905C68.8822 43.1867 70.3435 53.2114 65.0617 60.2958L59.5969 67.6257C57.3333 70.6618 53.037 71.2881 50.0009 69.0245L49.6419 68.7569C48.1208 67.6228 47.1524 65.8963 46.9778 64.0069C46.3681 57.4109 40.1785 52.7962 33.6829 54.0949C31.8223 54.4669 29.8912 54.0317 28.3701 52.8976L28.0112 52.63C24.975 50.3664 24.3487 46.0701 26.6123 43.0339L32.0772 35.704Z" fill="white" stroke="white" stroke-width="3.42857"/>
<path id="Vector 749 (Stroke)" fill-rule="evenodd" clip-rule="evenodd" d="M46.4694 35.985C47.1424 36.4867 47.2812 37.4391 46.7794 38.1121L44.7898 40.7808L47.4585 42.7704C48.1315 43.2722 48.2703 44.2245 47.7686 44.8975C47.2668 45.5706 46.3144 45.7094 45.6414 45.2076L42.9728 43.218L40.9831 45.8866C40.4814 46.5597 39.529 46.6985 38.856 46.1967C38.183 45.6949 38.0442 44.7426 38.5459 44.0696L40.5356 41.4009L37.8669 39.4113C37.1939 38.9095 37.0551 37.9572 37.5568 37.2842C38.0586 36.6111 39.0109 36.4723 39.6839 36.9741L42.3526 38.9637L44.3423 36.2951C44.844 35.622 45.7964 35.4832 46.4694 35.985Z" fill="#2B83EC"/>
<path id="Ellipse 3578" d="M58.1211 47.9368C57.3665 48.9488 55.9344 49.1575 54.9224 48.403C53.9103 47.6485 53.7015 46.2164 54.4561 45.2043C55.2106 44.1923 56.6427 43.9835 57.6548 44.7381C58.6668 45.4926 58.8756 46.9247 58.1211 47.9368Z" fill="#2B83EC"/>
<path id="Ellipse 3581" d="M58.6117 54.8095C59.6238 55.564 59.8325 56.9961 59.078 58.0081C58.3235 59.0202 56.8914 59.2289 55.8794 58.4744C54.8673 57.7198 54.6585 56.2877 55.4131 55.2757C56.1676 54.2637 57.5997 54.0549 58.6117 54.8095Z" fill="#2B83EC"/>
</g>
</g>
</svg>
