<svg width="70" height="70" viewBox="0 0 70 70" fill="none" xmlns="http://www.w3.org/2000/svg">
<circle cx="35" cy="35" r="32" stroke="black" stroke-width="6"/>
<path d="M33.8091 60V10H37.0122V60H33.8091ZM43.0474 25.9961C42.8651 24.2904 42.0969 22.9622 40.7427 22.0117C39.4016 21.0612 37.6568 20.5859 35.5083 20.5859C33.9979 20.5859 32.7023 20.8138 31.6216 21.2695C30.5409 21.7253 29.7141 22.3437 29.1411 23.125C28.5682 23.9062 28.2753 24.7982 28.2622 25.8008C28.2622 26.6341 28.451 27.3568 28.8286 27.9687C29.2193 28.5807 29.7466 29.1016 30.4107 29.5312C31.0747 29.9479 31.8104 30.2995 32.6177 30.5859C33.425 30.8724 34.2388 31.1133 35.0591 31.3086L38.8091 32.2461C40.3195 32.5977 41.7714 33.0729 43.1646 33.6719C44.5708 34.2708 45.8273 35.026 46.9341 35.9375C48.0539 36.849 48.9393 37.9492 49.5904 39.2383C50.2414 40.5273 50.5669 42.0378 50.5669 43.7695C50.5669 46.1133 49.968 48.1771 48.7701 49.9609C47.5721 51.7318 45.8404 53.1185 43.5747 54.1211C41.3221 55.1107 38.5943 55.6055 35.3911 55.6055C32.2792 55.6055 29.5773 55.1237 27.2857 54.1602C25.007 53.1966 23.2232 51.7904 21.9341 49.9414C20.6581 48.0924 19.968 45.8398 19.8638 43.1836H26.9927C27.0969 44.5768 27.5266 45.7357 28.2818 46.6602C29.037 47.5846 30.0201 48.2747 31.231 48.7305C32.4549 49.1862 33.8221 49.4141 35.3326 49.4141C36.9081 49.4141 38.2883 49.1797 39.4732 48.7109C40.6711 48.2292 41.6086 47.5651 42.2857 46.7187C42.9628 45.8594 43.3078 44.8568 43.3208 43.7109C43.3078 42.6693 43.0018 41.8099 42.4029 41.1328C41.8039 40.4427 40.9641 39.8698 39.8833 39.4141C38.8156 38.9453 37.5656 38.5286 36.1333 38.1641L31.5826 36.9922C28.2883 36.1458 25.6841 34.8633 23.7701 33.1445C21.869 31.4128 20.9185 29.1146 20.9185 26.25C20.9185 23.8932 21.5565 21.8294 22.8326 20.0586C24.1216 18.2878 25.8729 16.9141 28.0865 15.9375C30.3 14.9479 32.8065 14.4531 35.606 14.4531C38.4445 14.4531 40.9315 14.9479 43.0669 15.9375C45.2154 16.9141 46.9016 18.2747 48.1255 20.0195C49.3495 21.7513 49.981 23.7435 50.0201 25.9961H43.0474Z" fill="black"/>
</svg>
