<svg width="217" height="160" viewBox="0 0 217 160" fill="none" xmlns="http://www.w3.org/2000/svg">
<g filter="url(#filter0_i_134_243)">
<mask id="path-1-inside-1_134_243" fill="white">
<path d="M111.346 114.529C115.058 118.618 114.787 125.032 110.109 127.968C103.521 132.103 96.1192 134.857 88.3548 136.015C77.2761 137.667 65.9562 135.997 55.8266 131.216C45.6969 126.435 37.2125 118.758 31.4463 109.155C25.68 99.5517 22.8909 88.4544 23.4315 77.2662C23.9722 66.078 27.8185 55.3014 34.4839 46.2992C41.1493 37.2969 50.3344 30.4733 60.8779 26.6913C71.4214 22.9093 82.8496 22.3387 93.7173 25.0517C101.334 26.9531 108.435 30.4075 114.594 35.159C118.967 38.5326 118.618 44.9424 114.529 48.6546L87.4042 73.2785C83.315 76.9907 83.0094 83.315 86.7216 87.4042L111.346 114.529Z"/>
</mask>
<path d="M111.346 114.529C115.058 118.618 114.787 125.032 110.109 127.968C103.521 132.103 96.1192 134.857 88.3548 136.015C77.2761 137.667 65.9562 135.997 55.8266 131.216C45.6969 126.435 37.2125 118.758 31.4463 109.155C25.68 99.5517 22.8909 88.4544 23.4315 77.2662C23.9722 66.078 27.8185 55.3014 34.4839 46.2992C41.1493 37.2969 50.3344 30.4733 60.8779 26.6913C71.4214 22.9093 82.8496 22.3387 93.7173 25.0517C101.334 26.9531 108.435 30.4075 114.594 35.159C118.967 38.5326 118.618 44.9424 114.529 48.6546L87.4042 73.2785C83.315 76.9907 83.0094 83.315 86.7216 87.4042L111.346 114.529Z" stroke="#404042" stroke-width="16" mask="url(#path-1-inside-1_134_243)"/>
<circle cx="63.576" cy="54.5145" r="4.49518" fill="#404042" stroke="#404042" stroke-width="8"/>
<circle cx="124.03" cy="79.8547" r="4.49518" fill="#F9F9F9" stroke="#F9F9F9" stroke-width="8"/>
<circle cx="165.939" cy="79.8547" r="4.49518" fill="#F9F9F9" stroke="#F9F9F9" stroke-width="8"/>
<circle cx="207.849" cy="79.8547" r="4.49518" fill="#F9F9F9" stroke="#F9F9F9" stroke-width="8"/>
</g>
<defs>
<filter id="filter0_i_134_243" x="23.3655" y="23.3655" width="192.979" height="117.269" filterUnits="userSpaceOnUse" color-interpolation-filters="sRGB">
<feFlood flood-opacity="0" result="BackgroundImageFix"/>
<feBlend mode="normal" in="SourceGraphic" in2="BackgroundImageFix" result="shape"/>
<feColorMatrix in="SourceAlpha" type="matrix" values="0 0 0 0 0 0 0 0 0 0 0 0 0 0 0 0 0 0 127 0" result="hardAlpha"/>
<feOffset dy="4"/>
<feGaussianBlur stdDeviation="2"/>
<feComposite in2="hardAlpha" operator="arithmetic" k2="-1" k3="1"/>
<feColorMatrix type="matrix" values="0 0 0 0 0 0 0 0 0 0 0 0 0 0 0 0 0 0 0.25 0"/>
<feBlend mode="normal" in2="shape" result="effect1_innerShadow_134_243"/>
</filter>
</defs>
</svg>
