<svg width="184" height="145" viewBox="0 0 184 145" fill="none" xmlns="http://www.w3.org/2000/svg">
<path d="M82.3657 8.08463C85.32 6.36618 88.494 6.36382 91.6169 7.62997C94.8087 8.92406 97.8761 11.5382 100.165 14.8528C103.724 20.0073 107.295 23.6287 111.547 25.8154C115.619 27.9095 119.357 26.2282 122.02 24.3202C123.374 23.3505 124.65 22.1879 125.794 21.106C126.138 20.7802 126.466 20.4657 126.784 20.1618C127.571 19.4077 128.29 18.7189 129.016 18.0851C129.347 17.7957 129.771 17.5098 129.999 17.4024L128.731 14.7207L129.999 17.4023C130.482 17.1736 130.934 16.9934 131.362 16.853C133.467 16.1631 135.51 16.8559 137.518 18.9992C139.571 21.1891 141.166 24.5423 141.873 27.8163C148.358 57.8781 158.053 78.1286 177.96 108.525C179.967 111.588 180.985 114.966 180.5 118.125C179.91 121.969 178.804 124.831 177.044 127.183C175.273 129.548 172.677 131.612 168.763 133.596C164.095 135.96 158.227 134.95 153.612 131.435C114.84 101.901 89.8938 82.8053 61.0519 52.1061C56.7362 47.5126 55.4729 40.9592 58.1336 35.6223C64.846 22.1583 73.4005 13.2996 82.3657 8.08463Z" stroke="#404042" stroke-width="6"/>
<path d="M57.9258 40.4849C87.14 74.1991 102.743 91.9247 166.194 133.891" stroke="#404042" stroke-width="5" stroke-linecap="round"/>
<path d="M123.771 22.1199C126.69 43.8105 131.329 55.1311 137.727 67.6357C140.201 72.4718 143.855 76.9538 149.034 78.5948C154.124 80.2079 156.533 78.6582 160.458 78.2291" stroke="#404042" stroke-width="6"/>
<circle cx="103.883" cy="50.8829" r="16.3829" stroke="#F9F9F9" stroke-width="5"/>
<path d="M102.64 64.7273V37.4545H104.387V64.7273H102.64ZM107.274 46.4567C107.189 45.5973 106.823 44.9297 106.177 44.4538C105.53 43.978 104.653 43.7401 103.545 43.7401C102.792 43.7401 102.157 43.8466 101.638 44.0597C101.12 44.2656 100.722 44.5533 100.445 44.9226C100.175 45.2919 100.04 45.7109 100.04 46.1797C100.026 46.5703 100.108 46.9112 100.285 47.2024C100.47 47.4936 100.722 47.7457 101.042 47.9588C101.361 48.1648 101.731 48.3459 102.15 48.5021C102.569 48.6513 103.016 48.7791 103.492 48.8857L105.452 49.3544C106.404 49.5675 107.278 49.8516 108.073 50.2067C108.868 50.5618 109.557 50.9986 110.14 51.517C110.722 52.0355 111.173 52.6463 111.493 53.3494C111.819 54.0526 111.986 54.8587 111.993 55.7678C111.986 57.103 111.645 58.2607 110.971 59.2408C110.303 60.2138 109.337 60.9702 108.073 61.5099C106.816 62.0426 105.3 62.3089 103.524 62.3089C101.763 62.3089 100.229 62.0391 98.9217 61.4993C97.622 60.9595 96.6064 60.1605 95.8748 59.1023C95.1504 58.0369 94.7704 56.7195 94.7349 55.1499H99.1987C99.2484 55.8814 99.4579 56.4922 99.8273 56.9822C100.204 57.4652 100.704 57.831 101.329 58.0795C101.961 58.321 102.675 58.4418 103.471 58.4418C104.252 58.4418 104.93 58.3281 105.506 58.1009C106.088 57.8736 106.539 57.5575 106.859 57.1527C107.178 56.7479 107.338 56.2827 107.338 55.7571C107.338 55.267 107.192 54.8551 106.901 54.5213C106.617 54.1875 106.198 53.9034 105.644 53.669C105.097 53.4347 104.426 53.2216 103.631 53.0298L101.255 52.4332C99.4153 51.9858 97.9629 51.2862 96.8976 50.3345C95.8322 49.3828 95.3031 48.1009 95.3102 46.4886C95.3031 45.1676 95.6547 44.0135 96.3649 43.0263C97.0822 42.0391 98.0659 41.2685 99.3159 40.7145C100.566 40.1605 101.986 39.8835 103.577 39.8835C105.197 39.8835 106.61 40.1605 107.817 40.7145C109.032 41.2685 109.976 42.0391 110.651 43.0263C111.326 44.0135 111.674 45.157 111.695 46.4567H107.274Z" fill="#F9F9F9"/>
<path d="M4 140.273H143.195" stroke="#F9F9F9" stroke-width="8" stroke-linecap="round"/>
<path d="M4 96.033H84.9267" stroke="#F9F9F9" stroke-width="8" stroke-linecap="round"/>
<path d="M19.6458 60.4253H46.6213" stroke="#F9F9F9" stroke-width="8" stroke-linecap="round"/>
</svg>
