<svg width="203" height="163" viewBox="0 0 203 163" fill="none" xmlns="http://www.w3.org/2000/svg">
<g filter="url(#filter0_di_134_99)">
<g filter="url(#filter1_i_134_99)">
<path d="M127.584 117.166L126.382 115.628H124.431H77.7551H75.9274L74.7311 117.01L50.4962 145L17 145C13.6863 145 11 142.314 11 139V102.725C11 77.3204 31.5949 56.7255 57 56.7255H141.863C166.239 56.7255 186 76.4864 186 100.863V139C186 142.314 183.314 145 180 145L149.324 145L127.584 117.166Z" stroke="#404042" stroke-width="8"/>
</g>
<path d="M69.0882 91.4702C69.0882 101.417 60.5276 109.712 49.6744 109.712C38.8212 109.712 30.2605 101.417 30.2605 91.4702C30.2605 81.523 38.8212 73.2281 49.6744 73.2281C60.5276 73.2281 69.0882 81.523 69.0882 91.4702Z" stroke="#F9F9F9" stroke-width="5"/>
<path d="M170.584 91.4702C170.584 101.417 162.023 109.712 151.17 109.712C140.317 109.712 131.756 101.417 131.756 91.4702C131.756 81.523 140.317 73.2281 151.17 73.2281C162.023 73.2281 170.584 81.523 170.584 91.4702Z" stroke="#F9F9F9" stroke-width="5"/>
<path d="M49.3278 105.717V78.4444H51.0749V105.717H49.3278ZM53.962 87.4465C53.8768 86.5872 53.511 85.9196 52.8647 85.4437C52.2184 84.9679 51.3413 84.7299 50.2333 84.7299C49.4805 84.7299 48.8448 84.8365 48.3264 85.0495C47.8079 85.2555 47.4102 85.5431 47.1332 85.9125C46.8633 86.2818 46.7283 86.7008 46.7283 87.1696C46.7141 87.5602 46.7958 87.9011 46.9734 88.1923C47.158 88.4835 47.4102 88.7356 47.7298 88.9487C48.0494 89.1546 48.4187 89.3357 48.8377 89.492C49.2568 89.6411 49.7042 89.769 50.1801 89.8755L52.1403 90.3443C53.092 90.5573 53.9656 90.8414 54.761 91.1965C55.5565 91.5517 56.2454 91.9884 56.8278 92.5069C57.4102 93.0254 57.8612 93.6362 58.1808 94.3393C58.5075 95.0424 58.6744 95.8485 58.6815 96.7576C58.6744 98.0929 58.3335 99.2505 57.6587 100.231C56.9911 101.204 56.0252 101.96 54.761 102.5C53.5039 103.032 51.9876 103.299 50.212 103.299C48.4506 103.299 46.9166 103.029 45.6097 102.489C44.31 101.949 43.2944 101.15 42.5629 100.092C41.8384 99.0268 41.4585 97.7093 41.423 96.1397H45.8867C45.9364 96.8713 46.146 97.4821 46.5153 97.9721C46.8917 98.4551 47.3924 98.8208 48.0174 99.0694C48.6495 99.3109 49.3633 99.4316 50.1587 99.4316C50.94 99.4316 51.6183 99.318 52.1935 99.0907C52.7759 98.8634 53.2269 98.5474 53.5465 98.1426C53.8661 97.7377 54.0259 97.2725 54.0259 96.747C54.0259 96.2569 53.8803 95.845 53.5891 95.5112C53.3051 95.1774 52.886 94.8933 52.332 94.6589C51.7852 94.4245 51.114 94.2115 50.3185 94.0197L47.9428 93.4231C46.1033 92.9757 44.6509 92.2761 43.5856 91.3244C42.5203 90.3727 41.9911 89.0907 41.9982 87.4785C41.9911 86.1575 42.3427 85.0034 43.0529 84.0161C43.7703 83.0289 44.7539 82.2583 46.0039 81.7044C47.2539 81.1504 48.6744 80.8734 50.2653 80.8734C51.8846 80.8734 53.298 81.1504 54.5053 81.7044C55.7198 82.2583 56.6644 83.0289 57.3391 84.0161C58.0139 85.0034 58.3619 86.1468 58.3832 87.4465H53.962Z" fill="#F9F9F9"/>
<path d="M150.824 105.717V78.4444H152.571V105.717H150.824ZM155.458 87.4465C155.373 86.5872 155.007 85.9196 154.361 85.4437C153.714 84.9679 152.837 84.7299 151.729 84.7299C150.976 84.7299 150.341 84.8365 149.822 85.0495C149.304 85.2555 148.906 85.5431 148.629 85.9125C148.359 86.2818 148.224 86.7008 148.224 87.1696C148.21 87.5602 148.292 87.9011 148.469 88.1923C148.654 88.4835 148.906 88.7356 149.226 88.9487C149.545 89.1546 149.915 89.3357 150.334 89.492C150.753 89.6411 151.2 89.769 151.676 89.8755L153.636 90.3443C154.588 90.5573 155.461 90.8414 156.257 91.1965C157.052 91.5517 157.741 91.9884 158.324 92.5069C158.906 93.0254 159.357 93.6362 159.677 94.3393C160.003 95.0424 160.17 95.8485 160.177 96.7576C160.17 98.0929 159.829 99.2505 159.155 100.231C158.487 101.204 157.521 101.96 156.257 102.5C155 103.032 153.483 103.299 151.708 103.299C149.946 103.299 148.412 103.029 147.106 102.489C145.806 101.949 144.79 101.15 144.059 100.092C143.334 99.0268 142.954 97.7093 142.919 96.1397H147.383C147.432 96.8713 147.642 97.4821 148.011 97.9721C148.388 98.4551 148.888 98.8208 149.513 99.0694C150.145 99.3109 150.859 99.4316 151.655 99.4316C152.436 99.4316 153.114 99.318 153.689 99.0907C154.272 98.8634 154.723 98.5474 155.042 98.1426C155.362 97.7377 155.522 97.2725 155.522 96.747C155.522 96.2569 155.376 95.845 155.085 95.5112C154.801 95.1774 154.382 94.8933 153.828 94.6589C153.281 94.4245 152.61 94.2115 151.814 94.0197L149.439 93.4231C147.599 92.9757 146.147 92.2761 145.081 91.3244C144.016 90.3727 143.487 89.0907 143.494 87.4785C143.487 86.1575 143.839 85.0034 144.549 84.0161C145.266 83.0289 146.25 82.2583 147.5 81.7044C148.75 81.1504 150.17 80.8734 151.761 80.8734C153.38 80.8734 154.794 81.1504 156.001 81.7044C157.216 82.2583 158.16 83.0289 158.835 84.0161C159.51 85.0034 159.858 86.1468 159.879 87.4465H155.458Z" fill="#F9F9F9"/>
<rect x="83.2773" y="56.7255" width="34.2899" height="13.9161" stroke="#404042" stroke-width="8"/>
<path d="M96.8993 54.034L97.8148 38.84C98.3086 30.6459 107.66 26.3249 114.016 31.3537V31.3537C120.554 36.5265 130.145 31.7969 130.235 23.3557L130.41 6.93652" stroke="#404042" stroke-width="8"/>
</g>
<defs>
<filter id="filter0_di_134_99" x="0" y="0.919098" width="203" height="162.081" filterUnits="userSpaceOnUse" color-interpolation-filters="sRGB">
<feFlood flood-opacity="0" result="BackgroundImageFix"/>
<feColorMatrix in="SourceAlpha" type="matrix" values="0 0 0 0 0 0 0 0 0 0 0 0 0 0 0 0 0 0 127 0" result="hardAlpha"/>
<feOffset dx="3" dy="4"/>
<feGaussianBlur stdDeviation="5"/>
<feComposite in2="hardAlpha" operator="out"/>
<feColorMatrix type="matrix" values="0 0 0 0 0 0 0 0 0 0 0 0 0 0 0 0 0 0 0.3 0"/>
<feBlend mode="normal" in2="BackgroundImageFix" result="effect1_dropShadow_134_99"/>
<feBlend mode="normal" in="SourceGraphic" in2="effect1_dropShadow_134_99" result="shape"/>
<feColorMatrix in="SourceAlpha" type="matrix" values="0 0 0 0 0 0 0 0 0 0 0 0 0 0 0 0 0 0 127 0" result="hardAlpha"/>
<feOffset dy="4"/>
<feGaussianBlur stdDeviation="2"/>
<feComposite in2="hardAlpha" operator="arithmetic" k2="-1" k3="1"/>
<feColorMatrix type="matrix" values="0 0 0 0 0 0 0 0 0 0 0 0 0 0 0 0 0 0 0.25 0"/>
<feBlend mode="normal" in2="shape" result="effect2_innerShadow_134_99"/>
</filter>
<filter id="filter1_i_134_99" x="7" y="52.7255" width="183" height="100.274" filterUnits="userSpaceOnUse" color-interpolation-filters="sRGB">
<feFlood flood-opacity="0" result="BackgroundImageFix"/>
<feBlend mode="normal" in="SourceGraphic" in2="BackgroundImageFix" result="shape"/>
<feColorMatrix in="SourceAlpha" type="matrix" values="0 0 0 0 0 0 0 0 0 0 0 0 0 0 0 0 0 0 127 0" result="hardAlpha"/>
<feOffset dy="4"/>
<feGaussianBlur stdDeviation="2"/>
<feComposite in2="hardAlpha" operator="arithmetic" k2="-1" k3="1"/>
<feColorMatrix type="matrix" values="0 0 0 0 0 0 0 0 0 0 0 0 0 0 0 0 0 0 0.25 0"/>
<feBlend mode="normal" in2="shape" result="effect1_innerShadow_134_99"/>
</filter>
</defs>
</svg>
