<svg width="198" height="170" viewBox="0 0 198 170" fill="none" xmlns="http://www.w3.org/2000/svg">
<g filter="url(#filter0_i_142_355)">
<path d="M126.735 49L126.735 48.4275L126.574 47.878C125.913 45.6144 128.762 44.0091 130.355 45.7476L149.526 66.6613C152.509 69.9157 157.923 67.5604 157.575 63.1594L157.217 58.6233C156.731 52.4642 159.834 46.5755 165.19 43.4949L166.127 42.9557C166.834 42.5491 167.704 43.1139 167.62 43.9249L164.345 75.7313C163.943 79.6363 159.961 82.1096 156.282 80.7393L155.04 80.2767C154.479 80.0678 153.953 79.7763 153.479 79.4117L132.986 63.6654C129.045 60.637 126.735 55.9488 126.735 50.9783L126.735 49Z" stroke="#404042" stroke-width="8"/>
</g>
<g filter="url(#filter1_i_142_355)">
<path d="M8.11206 162C3.60503 157.297 3.68629 149.854 8.29489 145.251L121.678 32L135.192 48.0695C143.386 57.8133 140.512 72.6315 129.268 78.6045L103.112 92.5L97.1121 86.5L24.5042 161.363C20.0866 165.918 12.8699 166.198 8.11206 162Z" fill="#4C87E0"/>
</g>
<path d="M99.9405 83.6716L97.0685 80.7996L94.2407 83.7151L21.6328 158.578C18.7412 161.559 14.0417 161.78 10.8852 159.11C8.00109 155.974 8.09293 151.106 11.1217 148.081L121.421 37.9097L132.131 50.6441C138.686 58.439 136.386 70.2937 127.392 75.072L103.848 87.5794L99.9405 83.6716Z" stroke="#404042" stroke-width="8"/>
<g filter="url(#filter2_i_142_355)">
<path d="M64.5837 55.0973C60.5722 54.4287 58.9945 49.5055 61.8702 46.6298L89.77 18.73C96.1786 12.3214 106.626 12.5101 112.799 19.1461L134.753 42.7471C138.48 46.7533 138.255 53.0216 134.25 56.75C130.269 60.4561 124.021 60.171 120.395 56.1178L105.024 38.939C103.11 36.7998 99.7923 36.7077 97.7626 38.7374L86.2778 50.2222C81.7106 54.7894 75.2188 56.8698 68.8477 55.8079L64.5837 55.0973Z" fill="#4C87E0"/>
</g>
<path d="M65.2413 51.1517C64.439 51.018 64.1235 50.0334 64.6986 49.4582L92.5984 21.5584C97.4049 16.752 105.24 16.8935 109.87 21.8705L131.824 45.4715C134.047 47.8607 133.913 51.5989 131.524 53.8224C129.183 56.0021 125.509 55.8344 123.376 53.4506L108.005 36.2718C104.56 32.4213 98.5876 32.2555 94.9342 35.909L83.4494 47.3938C79.7956 51.0476 74.6022 52.7119 69.5053 51.8624L65.2413 51.1517Z" stroke="#404042" stroke-width="8"/>
<g filter="url(#filter3_i_142_355)">
<path d="M65.2413 51.1517C64.439 51.018 64.1235 50.0334 64.6986 49.4582L92.5984 21.5584C97.4049 16.752 105.24 16.8935 109.87 21.8705L131.824 45.4715C134.047 47.8607 133.913 51.5989 131.524 53.8224C129.183 56.0021 125.509 55.8344 123.376 53.4506L108.005 36.2718C104.56 32.4213 98.5876 32.2555 94.9342 35.909L83.4494 47.3938C79.7956 51.0476 74.6022 52.7119 69.5053 51.8624L65.2413 51.1517Z" stroke="#404042" stroke-width="8"/>
</g>
<g filter="url(#filter4_i_142_355)">
<path d="M83.9981 72.0942C85.9234 70.1183 89.1025 70.0572 91.0811 71.9798L124.693 104.64C132.492 112.219 130.621 125.203 120.999 130.272L81.7528 150.943C77.5673 153.148 72.5289 152.979 68.5001 150.5C61.4072 144.826 62.4401 133.745 70.4595 129.479L99.155 114.216C99.7904 113.878 99.8714 112.999 99.3086 112.551L85.7818 101.772C76.5287 94.398 75.7412 80.5684 83.9981 72.0942Z" fill="#4C87E0"/>
</g>
<path d="M101.801 109.422L99.3086 112.551L101.801 109.422L88.2746 98.6433C80.8954 92.763 80.2367 81.6864 86.863 74.8857C87.2662 74.4719 87.9163 74.482 88.2935 74.8485L121.905 107.509C127.755 113.193 126.352 122.931 119.135 126.733L79.8887 147.404C77.0271 148.912 73.5969 148.837 70.8089 147.22C66.1711 143.299 66.9301 135.887 72.3379 133.011L101.033 117.747C104.211 116.057 104.616 111.665 101.801 109.422Z" stroke="#404042" stroke-width="8"/>
<g filter="url(#filter5_i_142_355)">
<path d="M101.801 109.422L99.3086 112.551L101.801 109.422L88.2746 98.6433C80.8954 92.763 80.2367 81.6864 86.863 74.8857C87.2662 74.4719 87.9163 74.482 88.2935 74.8485L121.905 107.509C127.755 113.193 126.352 122.931 119.135 126.733L79.8887 147.404C77.0271 148.912 73.5969 148.837 70.8089 147.22C66.1711 143.299 66.9301 135.887 72.3379 133.011L101.033 117.747C104.211 116.057 104.616 111.665 101.801 109.422Z" stroke="#404042" stroke-width="8"/>
</g>
<g filter="url(#filter6_i_142_355)">
<path d="M21 16.5H67" stroke="#F9F9F9" stroke-width="8" stroke-linecap="round"/>
</g>
<g filter="url(#filter7_i_142_355)">
<path d="M16 50H41" stroke="#F9F9F9" stroke-width="8" stroke-linecap="round"/>
</g>
<g filter="url(#filter8_i_142_355)">
<path d="M9 83H39" stroke="#F9F9F9" stroke-width="8" stroke-linecap="round"/>
</g>
<g filter="url(#filter9_i_142_355)">
<circle cx="140" cy="26" r="16" stroke="#404042" stroke-width="8"/>
</g>
<defs>
<filter id="filter0_i_142_355" x="122.461" y="38.8124" width="49.1663" height="50.3109" filterUnits="userSpaceOnUse" color-interpolation-filters="sRGB">
<feFlood flood-opacity="0" result="BackgroundImageFix"/>
<feBlend mode="normal" in="SourceGraphic" in2="BackgroundImageFix" result="shape"/>
<feColorMatrix in="SourceAlpha" type="matrix" values="0 0 0 0 0 0 0 0 0 0 0 0 0 0 0 0 0 0 127 0" result="hardAlpha"/>
<feOffset dy="4"/>
<feGaussianBlur stdDeviation="2"/>
<feComposite in2="hardAlpha" operator="arithmetic" k2="-1" k3="1"/>
<feColorMatrix type="matrix" values="0 0 0 0 0 0 0 0 0 0 0 0 0 0 0 0 0 0 0.25 0"/>
<feBlend mode="normal" in2="shape" result="effect1_innerShadow_142_355"/>
</filter>
<filter id="filter1_i_142_355" x="4.78442" y="32" width="135.104" height="136.973" filterUnits="userSpaceOnUse" color-interpolation-filters="sRGB">
<feFlood flood-opacity="0" result="BackgroundImageFix"/>
<feBlend mode="normal" in="SourceGraphic" in2="BackgroundImageFix" result="shape"/>
<feColorMatrix in="SourceAlpha" type="matrix" values="0 0 0 0 0 0 0 0 0 0 0 0 0 0 0 0 0 0 127 0" result="hardAlpha"/>
<feOffset dy="4"/>
<feGaussianBlur stdDeviation="2"/>
<feComposite in2="hardAlpha" operator="arithmetic" k2="-1" k3="1"/>
<feColorMatrix type="matrix" values="0 0 0 0 0 0 0 0 0 0 0 0 0 0 0 0 0 0 0.25 0"/>
<feBlend mode="normal" in2="shape" result="effect1_innerShadow_142_355"/>
</filter>
<filter id="filter2_i_142_355" x="60.4006" y="14.0437" width="77.0066" height="49.3101" filterUnits="userSpaceOnUse" color-interpolation-filters="sRGB">
<feFlood flood-opacity="0" result="BackgroundImageFix"/>
<feBlend mode="normal" in="SourceGraphic" in2="BackgroundImageFix" result="shape"/>
<feColorMatrix in="SourceAlpha" type="matrix" values="0 0 0 0 0 0 0 0 0 0 0 0 0 0 0 0 0 0 127 0" result="hardAlpha"/>
<feOffset dy="4"/>
<feGaussianBlur stdDeviation="2"/>
<feComposite in2="hardAlpha" operator="arithmetic" k2="-1" k3="1"/>
<feColorMatrix type="matrix" values="0 0 0 0 0 0 0 0 0 0 0 0 0 0 0 0 0 0 0.25 0"/>
<feBlend mode="normal" in2="shape" result="effect1_innerShadow_142_355"/>
</filter>
<filter id="filter3_i_142_355" x="60.4006" y="14.0437" width="77.0066" height="49.3101" filterUnits="userSpaceOnUse" color-interpolation-filters="sRGB">
<feFlood flood-opacity="0" result="BackgroundImageFix"/>
<feBlend mode="normal" in="SourceGraphic" in2="BackgroundImageFix" result="shape"/>
<feColorMatrix in="SourceAlpha" type="matrix" values="0 0 0 0 0 0 0 0 0 0 0 0 0 0 0 0 0 0 127 0" result="hardAlpha"/>
<feOffset dy="4"/>
<feGaussianBlur stdDeviation="2"/>
<feComposite in2="hardAlpha" operator="arithmetic" k2="-1" k3="1"/>
<feColorMatrix type="matrix" values="0 0 0 0 0 0 0 0 0 0 0 0 0 0 0 0 0 0 0.25 0"/>
<feBlend mode="normal" in2="shape" result="effect1_innerShadow_142_355"/>
</filter>
<filter id="filter4_i_142_355" x="63.7573" y="70.5743" width="65.7874" height="85.9114" filterUnits="userSpaceOnUse" color-interpolation-filters="sRGB">
<feFlood flood-opacity="0" result="BackgroundImageFix"/>
<feBlend mode="normal" in="SourceGraphic" in2="BackgroundImageFix" result="shape"/>
<feColorMatrix in="SourceAlpha" type="matrix" values="0 0 0 0 0 0 0 0 0 0 0 0 0 0 0 0 0 0 127 0" result="hardAlpha"/>
<feOffset dy="4"/>
<feGaussianBlur stdDeviation="2"/>
<feComposite in2="hardAlpha" operator="arithmetic" k2="-1" k3="1"/>
<feColorMatrix type="matrix" values="0 0 0 0 0 0 0 0 0 0 0 0 0 0 0 0 0 0 0.25 0"/>
<feBlend mode="normal" in2="shape" result="effect1_innerShadow_142_355"/>
</filter>
<filter id="filter5_i_142_355" x="63.7573" y="70.5743" width="65.7874" height="85.9114" filterUnits="userSpaceOnUse" color-interpolation-filters="sRGB">
<feFlood flood-opacity="0" result="BackgroundImageFix"/>
<feBlend mode="normal" in="SourceGraphic" in2="BackgroundImageFix" result="shape"/>
<feColorMatrix in="SourceAlpha" type="matrix" values="0 0 0 0 0 0 0 0 0 0 0 0 0 0 0 0 0 0 127 0" result="hardAlpha"/>
<feOffset dy="4"/>
<feGaussianBlur stdDeviation="2"/>
<feComposite in2="hardAlpha" operator="arithmetic" k2="-1" k3="1"/>
<feColorMatrix type="matrix" values="0 0 0 0 0 0 0 0 0 0 0 0 0 0 0 0 0 0 0.25 0"/>
<feBlend mode="normal" in2="shape" result="effect1_innerShadow_142_355"/>
</filter>
<filter id="filter6_i_142_355" x="17" y="12.5" width="54" height="12" filterUnits="userSpaceOnUse" color-interpolation-filters="sRGB">
<feFlood flood-opacity="0" result="BackgroundImageFix"/>
<feBlend mode="normal" in="SourceGraphic" in2="BackgroundImageFix" result="shape"/>
<feColorMatrix in="SourceAlpha" type="matrix" values="0 0 0 0 0 0 0 0 0 0 0 0 0 0 0 0 0 0 127 0" result="hardAlpha"/>
<feOffset dy="4"/>
<feGaussianBlur stdDeviation="2"/>
<feComposite in2="hardAlpha" operator="arithmetic" k2="-1" k3="1"/>
<feColorMatrix type="matrix" values="0 0 0 0 0 0 0 0 0 0 0 0 0 0 0 0 0 0 0.25 0"/>
<feBlend mode="normal" in2="shape" result="effect1_innerShadow_142_355"/>
</filter>
<filter id="filter7_i_142_355" x="12" y="46" width="33" height="12" filterUnits="userSpaceOnUse" color-interpolation-filters="sRGB">
<feFlood flood-opacity="0" result="BackgroundImageFix"/>
<feBlend mode="normal" in="SourceGraphic" in2="BackgroundImageFix" result="shape"/>
<feColorMatrix in="SourceAlpha" type="matrix" values="0 0 0 0 0 0 0 0 0 0 0 0 0 0 0 0 0 0 127 0" result="hardAlpha"/>
<feOffset dy="4"/>
<feGaussianBlur stdDeviation="2"/>
<feComposite in2="hardAlpha" operator="arithmetic" k2="-1" k3="1"/>
<feColorMatrix type="matrix" values="0 0 0 0 0 0 0 0 0 0 0 0 0 0 0 0 0 0 0.25 0"/>
<feBlend mode="normal" in2="shape" result="effect1_innerShadow_142_355"/>
</filter>
<filter id="filter8_i_142_355" x="5" y="79" width="38" height="12" filterUnits="userSpaceOnUse" color-interpolation-filters="sRGB">
<feFlood flood-opacity="0" result="BackgroundImageFix"/>
<feBlend mode="normal" in="SourceGraphic" in2="BackgroundImageFix" result="shape"/>
<feColorMatrix in="SourceAlpha" type="matrix" values="0 0 0 0 0 0 0 0 0 0 0 0 0 0 0 0 0 0 127 0" result="hardAlpha"/>
<feOffset dy="4"/>
<feGaussianBlur stdDeviation="2"/>
<feComposite in2="hardAlpha" operator="arithmetic" k2="-1" k3="1"/>
<feColorMatrix type="matrix" values="0 0 0 0 0 0 0 0 0 0 0 0 0 0 0 0 0 0 0.25 0"/>
<feBlend mode="normal" in2="shape" result="effect1_innerShadow_142_355"/>
</filter>
<filter id="filter9_i_142_355" x="120" y="6" width="40" height="44" filterUnits="userSpaceOnUse" color-interpolation-filters="sRGB">
<feFlood flood-opacity="0" result="BackgroundImageFix"/>
<feBlend mode="normal" in="SourceGraphic" in2="BackgroundImageFix" result="shape"/>
<feColorMatrix in="SourceAlpha" type="matrix" values="0 0 0 0 0 0 0 0 0 0 0 0 0 0 0 0 0 0 127 0" result="hardAlpha"/>
<feOffset dy="4"/>
<feGaussianBlur stdDeviation="2"/>
<feComposite in2="hardAlpha" operator="arithmetic" k2="-1" k3="1"/>
<feColorMatrix type="matrix" values="0 0 0 0 0 0 0 0 0 0 0 0 0 0 0 0 0 0 0.25 0"/>
<feBlend mode="normal" in2="shape" result="effect1_innerShadow_142_355"/>
</filter>
</defs>
</svg>
