<svg width="512" height="512" viewBox="0 0 512 512" fill="none" xmlns="http://www.w3.org/2000/svg">
<g clip-path="url(#clip0_1_888)">
<path d="M512 256C512 114.615 397.385 0 256 0C114.615 0 0 114.615 0 256C0 383.777 93.6155 489.685 216 508.89V330H151V256H216V199.6C216 135.44 254.219 100 312.695 100C340.703 100 370 105 370 105V168H337.719C305.917 168 296 187.734 296 207.979V256H367L355.65 330H296V508.89C418.384 489.685 512 383.777 512 256Z" fill="#1877F2"/>
<path d="M355.65 330L367 256H296V207.979C296 187.733 305.917 168 337.719 168H370V105C370 105 340.703 100 312.695 100C254.219 100 216 135.44 216 199.6V256H151V330H216V508.89C229.033 510.935 242.392 512 256 512C269.608 512 282.966 510.935 296 508.89V330H355.65Z" fill="white"/>
</g>
<defs>
<clipPath id="clip0_1_888">
<rect width="512" height="512" fill="white"/>
</clipPath>
</defs>
</svg>
