<svg width="48" height="48" viewBox="0 0 48 48" fill="none" xmlns="http://www.w3.org/2000/svg">
<path d="M3.27281 42.7214H10.9091V24.176L0 15.9941V39.4488C0 41.257 1.46456 42.7216 3.27281 42.7216V42.7214Z" fill="#4285F4"/>
<path d="M37.0898 42.7214H44.7263C46.5344 42.7214 47.999 41.2569 47.999 39.4487V15.9941L37.0898 24.176V42.7214Z" fill="#34A853"/>
<path d="M37.0898 9.99441V24.1763L47.999 15.9944V11.6308C47.999 7.58625 43.3818 5.27625 40.1444 7.70353L37.0898 9.99441Z" fill="#FBBC04"/>
<path fill-rule="evenodd" clip-rule="evenodd" d="M10.9102 24.176V9.99414L24.001 19.8124L37.0919 9.99414V24.176L24.001 33.9941L10.9102 24.176Z" fill="#EA4335"/>
<path d="M0 11.6308V15.9944L10.9091 24.1763V9.99441L7.85456 7.70354C4.61719 5.27626 0 7.58626 0 11.6306V11.6308Z" fill="#C5221F"/>
</svg>
