<svg width="520" height="520" viewBox="0 0 520 520" fill="none" xmlns="http://www.w3.org/2000/svg">
<g filter="url(#filter0_d_1_921)">
<path fill-rule="evenodd" clip-rule="evenodd" d="M128.541 256.001C128.541 183.397 187.397 124.541 260.001 124.541C332.603 124.541 391.459 183.397 391.459 256.001C391.459 328.603 332.603 387.459 260.001 387.459C187.397 387.459 128.541 328.603 128.541 256.001ZM260 341.333C212.871 341.333 174.667 303.129 174.667 256.001C174.667 208.871 212.871 170.667 260 170.667C307.128 170.667 345.333 208.871 345.333 256.001C345.333 303.129 307.128 341.333 260 341.333Z" fill="url(#paint0_linear_1_921)"/>
<path fill-rule="evenodd" clip-rule="evenodd" d="M128.541 256.001C128.541 183.397 187.397 124.541 260.001 124.541C332.603 124.541 391.459 183.397 391.459 256.001C391.459 328.603 332.603 387.459 260.001 387.459C187.397 387.459 128.541 328.603 128.541 256.001ZM260 341.333C212.871 341.333 174.667 303.129 174.667 256.001C174.667 208.871 212.871 170.667 260 170.667C307.128 170.667 345.333 208.871 345.333 256.001C345.333 303.129 307.128 341.333 260 341.333Z" fill="url(#paint1_radial_1_921)"/>
<path d="M396.653 150.066C413.62 150.066 427.374 136.313 427.374 119.347C427.374 102.38 413.62 88.6263 396.653 88.6263C379.688 88.6263 365.934 102.38 365.934 119.347C365.934 136.313 379.688 150.066 396.653 150.066Z" fill="url(#paint2_linear_1_921)"/>
<path d="M396.653 150.066C413.62 150.066 427.374 136.313 427.374 119.347C427.374 102.38 413.62 88.6263 396.653 88.6263C379.688 88.6263 365.934 102.38 365.934 119.347C365.934 136.313 379.688 150.066 396.653 150.066Z" fill="url(#paint3_radial_1_921)"/>
<path fill-rule="evenodd" clip-rule="evenodd" d="M260.001 0C190.475 0 181.757 0.294696 154.452 1.54055C127.203 2.78335 108.594 7.11132 92.3103 13.4402C75.476 19.9814 61.1995 28.7349 46.9667 42.9667C32.7349 57.1995 23.9814 71.476 17.4402 88.3103C11.1113 104.594 6.78335 123.203 5.54055 150.452C4.2947 177.757 4 186.475 4 256.001C4 325.525 4.2947 334.243 5.54055 361.548C6.78335 388.797 11.1113 407.406 17.4402 423.69C23.9814 440.524 32.7349 454.8 46.9667 469.033C61.1995 483.265 75.476 492.019 92.3103 498.561C108.594 504.889 127.203 509.217 154.452 510.459C181.757 511.705 190.475 512 260.001 512C329.525 512 338.243 511.705 365.548 510.459C392.797 509.217 411.406 504.889 427.69 498.561C444.524 492.019 458.8 483.265 473.033 469.033C487.265 454.8 496.019 440.524 502.561 423.69C508.889 407.406 513.217 388.797 514.459 361.548C515.705 334.243 516 325.525 516 256.001C516 186.475 515.705 177.757 514.459 150.452C513.217 123.203 508.889 104.594 502.561 88.3103C496.019 71.476 487.265 57.1995 473.033 42.9667C458.8 28.7349 444.524 19.9814 427.69 13.4402C411.406 7.11132 392.797 2.78335 365.548 1.54055C338.243 0.294696 329.525 0 260.001 0ZM260.001 46.126C328.355 46.126 336.452 46.3872 363.446 47.6188C388.406 48.757 401.961 52.9274 410.982 56.4333C422.931 61.0773 431.459 66.6247 440.417 75.5835C449.375 84.5412 454.923 93.0691 459.567 105.019C463.073 114.039 467.243 127.594 468.381 152.554C469.613 179.548 469.874 187.645 469.874 256.001C469.874 324.355 469.613 332.452 468.381 359.446C467.243 384.406 463.073 397.961 459.567 406.981C454.923 418.931 449.375 427.459 440.417 436.417C431.459 445.375 422.931 450.923 410.982 455.567C401.961 459.073 388.406 463.243 363.446 464.381C336.456 465.613 328.36 465.874 260.001 465.874C191.64 465.874 183.545 465.613 156.554 464.381C131.594 463.243 118.039 459.073 109.019 455.567C97.0692 450.923 88.5413 445.375 79.5835 436.417C70.6258 427.459 65.0774 418.931 60.4333 406.981C56.9275 397.961 52.757 384.406 51.6189 359.446C50.3873 332.452 50.1261 324.355 50.1261 256.001C50.1261 187.645 50.3873 179.548 51.6189 152.554C52.757 127.594 56.9275 114.039 60.4333 105.019C65.0774 93.0691 70.6248 84.5412 79.5835 75.5835C88.5413 66.6247 97.0692 61.0773 109.019 56.4333C118.039 52.9274 131.594 48.757 156.554 47.6188C183.548 46.3872 191.645 46.126 260.001 46.126Z" fill="url(#paint4_linear_1_921)"/>
<path fill-rule="evenodd" clip-rule="evenodd" d="M260.001 0C190.475 0 181.757 0.294696 154.452 1.54055C127.203 2.78335 108.594 7.11132 92.3103 13.4402C75.476 19.9814 61.1995 28.7349 46.9667 42.9667C32.7349 57.1995 23.9814 71.476 17.4402 88.3103C11.1113 104.594 6.78335 123.203 5.54055 150.452C4.2947 177.757 4 186.475 4 256.001C4 325.525 4.2947 334.243 5.54055 361.548C6.78335 388.797 11.1113 407.406 17.4402 423.69C23.9814 440.524 32.7349 454.8 46.9667 469.033C61.1995 483.265 75.476 492.019 92.3103 498.561C108.594 504.889 127.203 509.217 154.452 510.459C181.757 511.705 190.475 512 260.001 512C329.525 512 338.243 511.705 365.548 510.459C392.797 509.217 411.406 504.889 427.69 498.561C444.524 492.019 458.8 483.265 473.033 469.033C487.265 454.8 496.019 440.524 502.561 423.69C508.889 407.406 513.217 388.797 514.459 361.548C515.705 334.243 516 325.525 516 256.001C516 186.475 515.705 177.757 514.459 150.452C513.217 123.203 508.889 104.594 502.561 88.3103C496.019 71.476 487.265 57.1995 473.033 42.9667C458.8 28.7349 444.524 19.9814 427.69 13.4402C411.406 7.11132 392.797 2.78335 365.548 1.54055C338.243 0.294696 329.525 0 260.001 0ZM260.001 46.126C328.355 46.126 336.452 46.3872 363.446 47.6188C388.406 48.757 401.961 52.9274 410.982 56.4333C422.931 61.0773 431.459 66.6247 440.417 75.5835C449.375 84.5412 454.923 93.0691 459.567 105.019C463.073 114.039 467.243 127.594 468.381 152.554C469.613 179.548 469.874 187.645 469.874 256.001C469.874 324.355 469.613 332.452 468.381 359.446C467.243 384.406 463.073 397.961 459.567 406.981C454.923 418.931 449.375 427.459 440.417 436.417C431.459 445.375 422.931 450.923 410.982 455.567C401.961 459.073 388.406 463.243 363.446 464.381C336.456 465.613 328.36 465.874 260.001 465.874C191.64 465.874 183.545 465.613 156.554 464.381C131.594 463.243 118.039 459.073 109.019 455.567C97.0692 450.923 88.5413 445.375 79.5835 436.417C70.6258 427.459 65.0774 418.931 60.4333 406.981C56.9275 397.961 52.757 384.406 51.6189 359.446C50.3873 332.452 50.1261 324.355 50.1261 256.001C50.1261 187.645 50.3873 179.548 51.6189 152.554C52.757 127.594 56.9275 114.039 60.4333 105.019C65.0774 93.0691 70.6248 84.5412 79.5835 75.5835C88.5413 66.6247 97.0692 61.0773 109.019 56.4333C118.039 52.9274 131.594 48.757 156.554 47.6188C183.548 46.3872 191.645 46.126 260.001 46.126Z" fill="url(#paint5_radial_1_921)"/>
</g>
<defs>
<filter id="filter0_d_1_921" x="0" y="0" width="520" height="520" filterUnits="userSpaceOnUse" color-interpolation-filters="sRGB">
<feFlood flood-opacity="0" result="BackgroundImageFix"/>
<feColorMatrix in="SourceAlpha" type="matrix" values="0 0 0 0 0 0 0 0 0 0 0 0 0 0 0 0 0 0 127 0" result="hardAlpha"/>
<feOffset dy="4"/>
<feGaussianBlur stdDeviation="2"/>
<feComposite in2="hardAlpha" operator="out"/>
<feColorMatrix type="matrix" values="0 0 0 0 0 0 0 0 0 0 0 0 0 0 0 0 0 0 0.25 0"/>
<feBlend mode="normal" in2="BackgroundImageFix" result="effect1_dropShadow_1_921"/>
<feBlend mode="normal" in="SourceGraphic" in2="effect1_dropShadow_1_921" result="shape"/>
</filter>
<linearGradient id="paint0_linear_1_921" x1="33.8736" y1="26.9173" x2="195.303" y2="651.345" gradientUnits="userSpaceOnUse">
<stop stop-color="#4E60D3"/>
<stop offset="0.142763" stop-color="#913BAF"/>
<stop offset="0.761458" stop-color="#D52D88"/>
<stop offset="1" stop-color="#F26D4F"/>
</linearGradient>
<radialGradient id="paint1_radial_1_921" cx="0" cy="0" r="1" gradientUnits="userSpaceOnUse" gradientTransform="translate(159.005 512) rotate(32.1601) scale(478.18 344.131)">
<stop stop-color="#FED276"/>
<stop offset="0.17024" stop-color="#FDBD61" stop-opacity="0.975006"/>
<stop offset="0.454081" stop-color="#F6804D"/>
<stop offset="1" stop-color="#E83D5C" stop-opacity="0.01"/>
</radialGradient>
<linearGradient id="paint2_linear_1_921" x1="33.8736" y1="26.9173" x2="195.303" y2="651.345" gradientUnits="userSpaceOnUse">
<stop stop-color="#4E60D3"/>
<stop offset="0.142763" stop-color="#913BAF"/>
<stop offset="0.761458" stop-color="#D52D88"/>
<stop offset="1" stop-color="#F26D4F"/>
</linearGradient>
<radialGradient id="paint3_radial_1_921" cx="0" cy="0" r="1" gradientUnits="userSpaceOnUse" gradientTransform="translate(159.005 512) rotate(32.1601) scale(478.18 344.131)">
<stop stop-color="#FED276"/>
<stop offset="0.17024" stop-color="#FDBD61" stop-opacity="0.975006"/>
<stop offset="0.454081" stop-color="#F6804D"/>
<stop offset="1" stop-color="#E83D5C" stop-opacity="0.01"/>
</radialGradient>
<linearGradient id="paint4_linear_1_921" x1="33.8736" y1="26.9173" x2="195.303" y2="651.345" gradientUnits="userSpaceOnUse">
<stop stop-color="#4E60D3"/>
<stop offset="0.142763" stop-color="#913BAF"/>
<stop offset="0.761458" stop-color="#D52D88"/>
<stop offset="1" stop-color="#F26D4F"/>
</linearGradient>
<radialGradient id="paint5_radial_1_921" cx="0" cy="0" r="1" gradientUnits="userSpaceOnUse" gradientTransform="translate(159.005 512) rotate(32.1601) scale(478.18 344.131)">
<stop stop-color="#FED276"/>
<stop offset="0.17024" stop-color="#FDBD61" stop-opacity="0.975006"/>
<stop offset="0.454081" stop-color="#F6804D"/>
<stop offset="1" stop-color="#E83D5C" stop-opacity="0.01"/>
</radialGradient>
</defs>
</svg>
