<svg width="520" height="520" viewBox="0 0 520 520" fill="none" xmlns="http://www.w3.org/2000/svg">
<g filter="url(#filter0_d_1_905)">
<path d="M260 512C401.385 512 516 397.385 516 256C516 114.615 401.385 0 260 0C118.615 0 4 114.615 4 256C4 397.385 118.615 512 260 512Z" fill="url(#paint0_linear_1_905)"/>
<path fill-rule="evenodd" clip-rule="evenodd" d="M119.881 253.298C194.51 220.783 244.274 199.347 269.174 188.991C340.268 159.42 355.041 154.283 364.669 154.114C366.787 154.077 371.522 154.601 374.589 157.09C377.179 159.192 377.892 162.03 378.233 164.023C378.574 166.015 378.998 170.554 378.661 174.101C374.808 214.58 358.138 312.814 349.657 358.152C346.069 377.336 339.003 383.768 332.162 384.398C317.296 385.766 306.007 374.573 291.608 365.134C269.077 350.365 256.348 341.171 234.477 326.758C209.202 310.102 225.587 300.948 239.991 285.987C243.761 282.072 309.263 222.493 310.53 217.088C310.689 216.412 310.836 213.893 309.339 212.562C307.842 211.232 305.633 211.687 304.039 212.048C301.779 212.561 265.785 236.352 196.057 283.421C185.84 290.436 176.586 293.855 168.294 293.676C159.154 293.478 141.571 288.507 128.5 284.258C112.468 279.047 99.7264 276.292 100.836 267.441C101.414 262.831 107.762 258.117 119.881 253.298Z" fill="white"/>
</g>
<defs>
<filter id="filter0_d_1_905" x="0" y="0" width="520" height="520" filterUnits="userSpaceOnUse" color-interpolation-filters="sRGB">
<feFlood flood-opacity="0" result="BackgroundImageFix"/>
<feColorMatrix in="SourceAlpha" type="matrix" values="0 0 0 0 0 0 0 0 0 0 0 0 0 0 0 0 0 0 127 0" result="hardAlpha"/>
<feOffset dy="4"/>
<feGaussianBlur stdDeviation="2"/>
<feComposite in2="hardAlpha" operator="out"/>
<feColorMatrix type="matrix" values="0 0 0 0 0 0 0 0 0 0 0 0 0 0 0 0 0 0 0.25 0"/>
<feBlend mode="normal" in2="BackgroundImageFix" result="effect1_dropShadow_1_905"/>
<feBlend mode="normal" in="SourceGraphic" in2="effect1_dropShadow_1_905" result="shape"/>
</filter>
<linearGradient id="paint0_linear_1_905" x1="260" y1="0" x2="260" y2="508.203" gradientUnits="userSpaceOnUse">
<stop stop-color="#2AABEE"/>
<stop offset="1" stop-color="#229ED9"/>
</linearGradient>
</defs>
</svg>
