<svg width="512" height="512" viewBox="0 0 512 512" fill="none" xmlns="http://www.w3.org/2000/svg">
<g clip-path="url(#clip0_241_233)">
<path d="M338.524 201.989C363.385 219.751 393.841 230.202 426.735 230.202V166.937C420.51 166.938 414.3 166.289 408.21 165V214.798C375.319 214.798 344.867 204.347 319.999 186.586V315.692C319.999 380.277 267.616 432.63 203.001 432.63C178.892 432.63 156.484 425.345 137.869 412.851C159.115 434.563 188.743 448.033 221.522 448.033C286.141 448.033 338.527 395.68 338.527 331.092V201.989H338.524ZM361.376 138.162C348.671 124.288 340.329 106.359 338.524 86.5383V78.401H320.969C325.388 103.594 340.46 125.117 361.376 138.162ZM178.738 363.291C171.639 353.988 167.803 342.608 167.82 330.907C167.82 301.368 191.78 277.417 221.34 277.417C226.849 277.416 232.325 278.259 237.575 279.924V215.245C231.44 214.405 225.247 214.048 219.058 214.179V264.522C213.804 262.857 208.325 262.011 202.815 262.016C173.255 262.016 149.297 285.964 149.297 315.507C149.297 336.396 161.273 354.481 178.738 363.291Z" fill="#EE1D52"/>
<path d="M319.999 186.585C344.867 204.346 375.319 214.797 408.21 214.797V164.998C389.85 161.09 373.597 151.5 361.377 138.162C340.459 125.116 325.388 103.592 320.969 78.401H274.857V331.089C274.753 360.547 250.834 384.4 221.337 384.4C203.956 384.4 188.514 376.119 178.734 363.291C161.27 354.481 149.294 336.395 149.294 315.508C149.294 285.968 173.253 262.018 202.813 262.018C208.476 262.018 213.935 262.899 219.055 264.523V214.18C155.576 215.491 104.523 267.332 104.523 331.09C104.523 362.918 117.237 391.771 137.871 412.853C156.485 425.345 178.894 432.631 203.003 432.631C267.619 432.631 320.001 380.276 320.001 315.692V186.585H319.999Z" fill="#010101"/>
<path d="M408.21 164.998V151.533C391.654 151.558 375.423 146.924 361.377 138.16C373.811 151.767 390.185 161.149 408.21 164.998ZM320.969 78.401C320.548 75.9934 320.224 73.57 319.999 71.1372V63H256.331V315.691C256.229 345.145 232.312 368.998 202.813 368.998C194.152 368.998 185.975 366.943 178.734 363.292C188.514 376.119 203.956 384.399 221.338 384.399C250.831 384.399 274.754 360.549 274.857 331.09V78.401H320.969ZM219.058 214.18V199.845C213.738 199.118 208.374 198.754 203.004 198.756C138.383 198.756 86 251.111 86 315.691C86 356.179 106.588 391.861 137.872 412.85C117.238 391.77 104.525 362.915 104.525 331.089C104.525 267.332 155.576 215.491 219.058 214.18Z" fill="#69C9D0"/>
</g>
<defs>
<clipPath id="clip0_241_233">
<rect width="340.745" height="386" fill="white" transform="translate(86 63)"/>
</clipPath>
</defs>
</svg>
