<svg width="512" height="512" viewBox="0 0 512 512" fill="none" xmlns="http://www.w3.org/2000/svg">
<path fill-rule="evenodd" clip-rule="evenodd" d="M501.299 132.96C495.412 110.935 478.065 93.5841 456.035 87.6964C416.107 77 255.998 77 255.998 77C255.998 77 95.8928 77 55.9645 87.6964C33.9352 93.5841 16.5883 110.935 10.7006 132.96C0 172.893 0 256.197 0 256.197C0 256.197 0 339.505 10.7006 379.433C16.5883 401.458 33.9352 418.814 55.9645 424.697C95.8928 435.398 255.998 435.398 255.998 435.398C255.998 435.398 416.107 435.398 456.035 424.697C478.065 418.814 495.412 401.458 501.299 379.433C512 339.505 512 256.197 512 256.197C512 256.197 512 172.893 501.299 132.96Z" fill="#FF0000"/>
<path fill-rule="evenodd" clip-rule="evenodd" d="M204.8 332.998L337.814 256.201L204.8 179.396V332.998Z" fill="white"/>
</svg>
