<svg width="203" height="163" viewBox="0 0 203 163" fill="none" xmlns="http://www.w3.org/2000/svg">
<g filter="url(#filter0_di_38_119)">
<g filter="url(#filter1_i_38_119)">
<path d="M127.584 117.166L126.382 115.628H124.431H77.7551H75.9274L74.7311 117.01L50.4962 145L17 145C13.6863 145 11 142.314 11 139V102.725C11 77.3204 31.5949 56.7255 57 56.7255H141.863C166.239 56.7255 186 76.4864 186 100.863V139C186 142.314 183.314 145 180 145L149.324 145L127.584 117.166Z" stroke="#404042" stroke-width="8"/>
</g>
<path d="M69.0882 91.4701C69.0882 101.417 60.5276 109.712 49.6744 109.712C38.8212 109.712 30.2605 101.417 30.2605 91.4701C30.2605 81.523 38.8212 73.228 49.6744 73.228C60.5276 73.228 69.0882 81.523 69.0882 91.4701Z" stroke="#009BDE" stroke-width="5"/>
<path d="M170.584 91.4701C170.584 101.417 162.023 109.712 151.17 109.712C140.317 109.712 131.756 101.417 131.756 91.4701C131.756 81.523 140.317 73.228 151.17 73.228C162.023 73.228 170.584 81.523 170.584 91.4701Z" stroke="#1FA1EB" stroke-width="5"/>
<path d="M49.3277 105.717V78.4443H51.0749V105.717H49.3277ZM53.962 87.4464C53.8767 86.587 53.511 85.9194 52.8647 85.4436C52.2183 84.9677 51.3412 84.7298 50.2333 84.7298C49.4804 84.7298 48.8448 84.8363 48.3263 85.0494C47.8078 85.2554 47.4101 85.543 47.1331 85.9123C46.8632 86.2816 46.7283 86.7007 46.7283 87.1694C46.7141 87.5601 46.7958 87.901 46.9733 88.1922C47.158 88.4834 47.4101 88.7355 47.7297 88.9486C48.0493 89.1545 48.4186 89.3356 48.8377 89.4919C49.2567 89.641 49.7041 89.7689 50.18 89.8754L52.1402 90.3441C53.0919 90.5572 53.9655 90.8413 54.761 91.1964C55.5564 91.5515 56.2453 91.9883 56.8277 92.5068C57.4101 93.0253 57.8611 93.6361 58.1807 94.3392C58.5074 95.0423 58.6743 95.8484 58.6814 96.7575C58.6743 98.0927 58.3334 99.2504 57.6587 100.231C56.9911 101.204 56.0252 101.96 54.761 102.5C53.5039 103.032 51.9875 103.299 50.212 103.299C48.4506 103.299 46.9165 103.029 45.6097 102.489C44.31 101.949 43.2943 101.15 42.5628 100.092C41.8384 99.0267 41.4584 97.7092 41.4229 96.1396H45.8867C45.9364 96.8711 46.1459 97.4819 46.5152 97.972C46.8916 98.4549 47.3923 98.8207 48.0173 99.0693C48.6495 99.3108 49.3632 99.4315 50.1587 99.4315C50.9399 99.4315 51.6182 99.3179 52.1935 99.0906C52.7759 98.8633 53.2269 98.5473 53.5465 98.1424C53.8661 97.7376 54.0259 97.2724 54.0259 96.7468C54.0259 96.2568 53.8803 95.8449 53.5891 95.5111C53.305 95.1772 52.886 94.8932 52.332 94.6588C51.7851 94.4244 51.1139 94.2113 50.3185 94.0196L47.9428 93.423C46.1033 92.9755 44.6509 92.276 43.5855 91.3243C42.5202 90.3726 41.9911 89.0906 41.9982 87.4784C41.9911 86.1574 42.3426 85.0032 43.0529 84.016C43.7702 83.0288 44.7539 82.2582 46.0039 81.7042C47.2539 81.1503 48.6743 80.8733 50.2652 80.8733C51.8845 80.8733 53.2979 81.1503 54.5053 81.7042C55.7198 82.2582 56.6644 83.0288 57.3391 84.016C58.0138 85.0032 58.3618 86.1467 58.3831 87.4464H53.962Z" fill="#1FA1EB"/>
<path d="M150.824 105.717V78.4443H152.571V105.717H150.824ZM155.458 87.4464C155.373 86.587 155.007 85.9194 154.36 85.4436C153.714 84.9677 152.837 84.7298 151.729 84.7298C150.976 84.7298 150.341 84.8363 149.822 85.0494C149.304 85.2554 148.906 85.543 148.629 85.9123C148.359 86.2816 148.224 86.7007 148.224 87.1694C148.21 87.5601 148.292 87.901 148.469 88.1922C148.654 88.4834 148.906 88.7355 149.225 88.9486C149.545 89.1545 149.914 89.3356 150.333 89.4919C150.752 89.641 151.2 89.7689 151.676 89.8754L153.636 90.3441C154.588 90.5572 155.461 90.8413 156.257 91.1964C157.052 91.5515 157.741 91.9883 158.324 92.5068C158.906 93.0253 159.357 93.6361 159.676 94.3392C160.003 95.0423 160.17 95.8484 160.177 96.7575C160.17 98.0927 159.829 99.2504 159.154 100.231C158.487 101.204 157.521 101.96 156.257 102.5C155 103.032 153.483 103.299 151.708 103.299C149.946 103.299 148.412 103.029 147.105 102.489C145.806 101.949 144.79 101.15 144.059 100.092C143.334 99.0267 142.954 97.7092 142.919 96.1396H147.382C147.432 96.8711 147.642 97.4819 148.011 97.972C148.387 98.4549 148.888 98.8207 149.513 99.0693C150.145 99.3108 150.859 99.4315 151.654 99.4315C152.436 99.4315 153.114 99.3179 153.689 99.0906C154.272 98.8633 154.723 98.5473 155.042 98.1424C155.362 97.7376 155.522 97.2724 155.522 96.7468C155.522 96.2568 155.376 95.8449 155.085 95.5111C154.801 95.1772 154.382 94.8932 153.828 94.6588C153.281 94.4244 152.61 94.2113 151.814 94.0196L149.439 93.423C147.599 92.9755 146.147 92.276 145.081 91.3243C144.016 90.3726 143.487 89.0906 143.494 87.4784C143.487 86.1574 143.838 85.0032 144.549 84.016C145.266 83.0288 146.25 82.2582 147.5 81.7042C148.75 81.1503 150.17 80.8733 151.761 80.8733C153.38 80.8733 154.794 81.1503 156.001 81.7042C157.216 82.2582 158.16 83.0288 158.835 84.016C159.51 85.0032 159.858 86.1467 159.879 87.4464H155.458Z" fill="#009BDE"/>
<rect x="83.2773" y="56.7255" width="34.2899" height="13.9161" stroke="#404042" stroke-width="8"/>
<path d="M96.8992 54.034L97.8147 38.84C98.3085 30.6459 107.659 26.3249 114.016 31.3537V31.3537C120.554 36.5265 130.145 31.7969 130.235 23.3557L130.41 6.93652" stroke="#404042" stroke-width="8"/>
</g>
<defs>
<filter id="filter0_di_38_119" x="0" y="0.919128" width="203" height="162.081" filterUnits="userSpaceOnUse" color-interpolation-filters="sRGB">
<feFlood flood-opacity="0" result="BackgroundImageFix"/>
<feColorMatrix in="SourceAlpha" type="matrix" values="0 0 0 0 0 0 0 0 0 0 0 0 0 0 0 0 0 0 127 0" result="hardAlpha"/>
<feOffset dx="3" dy="4"/>
<feGaussianBlur stdDeviation="5"/>
<feComposite in2="hardAlpha" operator="out"/>
<feColorMatrix type="matrix" values="0 0 0 0 0 0 0 0 0 0 0 0 0 0 0 0 0 0 0.3 0"/>
<feBlend mode="normal" in2="BackgroundImageFix" result="effect1_dropShadow_38_119"/>
<feBlend mode="normal" in="SourceGraphic" in2="effect1_dropShadow_38_119" result="shape"/>
<feColorMatrix in="SourceAlpha" type="matrix" values="0 0 0 0 0 0 0 0 0 0 0 0 0 0 0 0 0 0 127 0" result="hardAlpha"/>
<feOffset dy="4"/>
<feGaussianBlur stdDeviation="2"/>
<feComposite in2="hardAlpha" operator="arithmetic" k2="-1" k3="1"/>
<feColorMatrix type="matrix" values="0 0 0 0 0 0 0 0 0 0 0 0 0 0 0 0 0 0 0.25 0"/>
<feBlend mode="normal" in2="shape" result="effect2_innerShadow_38_119"/>
</filter>
<filter id="filter1_i_38_119" x="7" y="52.7255" width="183" height="100.275" filterUnits="userSpaceOnUse" color-interpolation-filters="sRGB">
<feFlood flood-opacity="0" result="BackgroundImageFix"/>
<feBlend mode="normal" in="SourceGraphic" in2="BackgroundImageFix" result="shape"/>
<feColorMatrix in="SourceAlpha" type="matrix" values="0 0 0 0 0 0 0 0 0 0 0 0 0 0 0 0 0 0 127 0" result="hardAlpha"/>
<feOffset dy="4"/>
<feGaussianBlur stdDeviation="2"/>
<feComposite in2="hardAlpha" operator="arithmetic" k2="-1" k3="1"/>
<feColorMatrix type="matrix" values="0 0 0 0 0 0 0 0 0 0 0 0 0 0 0 0 0 0 0.25 0"/>
<feBlend mode="normal" in2="shape" result="effect1_innerShadow_38_119"/>
</filter>
</defs>
</svg>
